<svg id="visual" viewBox="0 0 900 450" width="900" height="450" xmlns="http://www.w3.org/2000/svg" xmlns:xlink="http://www.w3.org/1999/xlink" version="1.1"><rect x="0" y="0" width="900" height="450" fill="#1d2c4f"></rect><path d="M0 277L21.5 285.5C43 294 86 311 128.8 317C171.7 323 214.3 318 257.2 311.3C300 304.7 343 296.3 385.8 288.2C428.7 280 471.3 272 514.2 279.7C557 287.3 600 310.7 642.8 314.3C685.7 318 728.3 302 771.2 294.3C814 286.7 857 287.3 878.5 287.7L900 288L900 451L878.5 451C857 451 814 451 771.2 451C728.3 451 685.7 451 642.8 451C600 451 557 451 514.2 451C471.3 451 428.7 451 385.8 451C343 451 300 451 257.2 451C214.3 451 171.7 451 128.8 451C86 451 43 451 21.5 451L0 451Z" fill="#293858"></path><path d="M0 309L21.5 317.2C43 325.3 86 341.7 128.8 348.8C171.7 356 214.3 354 257.2 353.8C300 353.7 343 355.3 385.8 351.7C428.7 348 471.3 339 514.2 331.2C557 323.3 600 316.7 642.8 313.3C685.7 310 728.3 310 771.2 318.2C814 326.3 857 342.7 878.5 350.8L900 359L900 451L878.5 451C857 451 814 451 771.2 451C728.3 451 685.7 451 642.8 451C600 451 557 451 514.2 451C471.3 451 428.7 451 385.8 451C343 451 300 451 257.2 451C214.3 451 171.7 451 128.8 451C86 451 43 451 21.5 451L0 451Z" fill="#2f3d5c"></path><path d="M0 371L21.5 365.3C43 359.7 86 348.3 128.8 342.8C171.7 337.3 214.3 337.7 257.2 344C300 350.3 343 362.7 385.8 365.5C428.7 368.3 471.3 361.7 514.2 358.2C557 354.7 600 354.3 642.8 356.8C685.7 359.3 728.3 364.7 771.2 366.2C814 367.7 857 365.3 878.5 364.2L900 363L900 451L878.5 451C857 451 814 451 771.2 451C728.3 451 685.7 451 642.8 451C600 451 557 451 514.2 451C471.3 451 428.7 451 385.8 451C343 451 300 451 257.2 451C214.3 451 171.7 451 128.8 451C86 451 43 451 21.5 451L0 451Z" fill="#354261"></path><path d="M0 388L21.5 387C43 386 86 384 128.8 384C171.7 384 214.3 386 257.2 386C300 386 343 384 385.8 385.7C428.7 387.3 471.3 392.7 514.2 389.5C557 386.3 600 374.7 642.8 372.8C685.7 371 728.3 379 771.2 382.7C814 386.3 857 385.7 878.5 385.3L900 385L900 451L878.5 451C857 451 814 451 771.2 451C728.3 451 685.7 451 642.8 451C600 451 557 451 514.2 451C471.3 451 428.7 451 385.8 451C343 451 300 451 257.2 451C214.3 451 171.7 451 128.8 451C86 451 43 451 21.5 451L0 451Z" fill="#3b4766"></path><path d="M0 414L21.5 411.7C43 409.3 86 404.7 128.8 406.7C171.7 408.7 214.3 417.3 257.2 419.7C300 422 343 418 385.8 418C428.7 418 471.3 422 514.2 423.8C557 425.7 600 425.3 642.8 422.3C685.7 419.3 728.3 413.7 771.2 410.5C814 407.3 857 406.7 878.5 406.3L900 406L900 451L878.5 451C857 451 814 451 771.2 451C728.3 451 685.7 451 642.8 451C600 451 557 451 514.2 451C471.3 451 428.7 451 385.8 451C343 451 300 451 257.2 451C214.3 451 171.7 451 128.8 451C86 451 43 451 21.5 451L0 451Z" fill="#414d6b"></path></svg>